<svg id="Layer_1" data-name="Layer 1" xmlns="http://www.w3.org/2000/svg" width="1200" height="260" viewBox="0 0 1200 260"><title>Artboard 1</title><path d="M330.26,150.22a71.8,71.8,0,0,1,4.36-25.35A60.24,60.24,0,0,1,347,104.59a57,57,0,0,1,19-13.44,59.28,59.28,0,0,1,24.17-4.83q14.14,0,23.34,4.83a41,41,0,0,1,15.1,13.56V42H458.3V211.76H428.59v-16a41.61,41.61,0,0,1-15.21,13.32q-9.33,4.83-23.47,4.84A58.72,58.72,0,0,1,366,209.05a57,57,0,0,1-19-13.44,60.24,60.24,0,0,1-12.38-20.28A71.1,71.1,0,0,1,330.26,150.22Zm94.34-6.37a32,32,0,0,0-11.09-20.51q-9.19-7.78-22.4-7.78A34.58,34.58,0,0,0,377,118.38a32.42,32.42,0,0,0-10.73,7.55A33,33,0,0,0,359.51,137a38.47,38.47,0,0,0-2.35,13.44,35.78,35.78,0,0,0,2.35,13,33.42,33.42,0,0,0,6.72,10.85A32.27,32.27,0,0,0,377,181.82a34.58,34.58,0,0,0,14.15,2.83,36.26,36.26,0,0,0,12.62-2.13,32.46,32.46,0,0,0,10.14-5.89c8.13-7,11.9-18,11.07-28.59C424.83,146.63,424.8,145.25,424.6,143.85Z" style="fill:#0d0d0d"/><path d="M508.31,158.39A36.31,36.31,0,0,0,519,178.28q8.84,8.49,23,8.49a32.37,32.37,0,0,0,16.39-4.13,26.38,26.38,0,0,0,10.49-10.26h33.25a53.38,53.38,0,0,1-21.11,30.19q-15.91,11.31-39.26,11.32a66.45,66.45,0,0,1-25.46-4.84,62.57,62.57,0,0,1-20.52-13.44,60.82,60.82,0,0,1-13.56-20.28,65,65,0,0,1-4.83-25.11,67.1,67.1,0,0,1,4.71-25.35,61.3,61.3,0,0,1,13.21-20.28A60.4,60.4,0,0,1,515.5,91.15a65.64,65.64,0,0,1,25.35-4.83A73,73,0,0,1,565,90.21a62.37,62.37,0,0,1,19.57,10.84,54.71,54.71,0,0,1,13.56,16.86,59.37,59.37,0,0,1,6.37,21.93q.47,4.95.47,8.85c0,2.59-.08,5.38-.24,9.7Zm64.14-19.49a27.35,27.35,0,0,0-10-18.39q-8.62-7.08-21.35-7.08T520,120.51a32.92,32.92,0,0,0-11,18.39Z" style="fill:#0d0d0d"/><path d="M616.85,150.22a64.25,64.25,0,0,1,4.95-25.35,63.32,63.32,0,0,1,13.56-20.28,61.22,61.22,0,0,1,20.4-13.44,66.45,66.45,0,0,1,25.46-4.83A68.17,68.17,0,0,1,703.74,90a64.67,64.67,0,0,1,18.75,10.14,55.81,55.81,0,0,1,20.75,36H711.4a30,30,0,0,0-10.84-15q-7.78-5.77-19.1-5.78a33,33,0,0,0-13.8,2.83,31.87,31.87,0,0,0-10.61,7.66,36.43,36.43,0,0,0-6.84,11.09,35.79,35.79,0,0,0-2.47,13.32,35.24,35.24,0,0,0,2.47,13.09,36.38,36.38,0,0,0,6.84,11.08,31.73,31.73,0,0,0,10.61,7.66,33,33,0,0,0,13.8,2.83q11.07,0,19-5.66a29.25,29.25,0,0,0,11-14.62h31.84a57.63,57.63,0,0,1-20.87,35.49,62.65,62.65,0,0,1-18.63,10.14,67.92,67.92,0,0,1-22.52,3.66,66.45,66.45,0,0,1-25.46-4.84,61.22,61.22,0,0,1-20.4-13.44,63.73,63.73,0,0,1-18.51-45.39Z" style="fill:#0d0d0d"/><path d="M875.26,211.76H845.55V195.94c0,.56-1.26,1.79-1.61,2.22a27.19,27.19,0,0,1-1.82,2.05,47.95,47.95,0,0,1-33.61,13.84c-1.56,0-3.13.07-4.69.07a45.28,45.28,0,0,1-17.93-3.42,38.88,38.88,0,0,1-13.55-9.43A41,41,0,0,1,763.85,187a53.49,53.49,0,0,1-3-18.15V88.67h29.71v70.74q0,12,6.84,18.75t17.45,6.72A25.38,25.38,0,0,0,827,181.93a32.19,32.19,0,0,0,9.55-7.66,36.86,36.86,0,0,0,6.37-11,39.91,39.91,0,0,0,2.59-12.62v-62h29.71Z" style="fill:#0d0d0d"/><path d="M1029.43,150.22a71.32,71.32,0,0,1-4.36,25.11,60.56,60.56,0,0,1-12.38,20.28,57.13,57.13,0,0,1-19,13.44,59.32,59.32,0,0,1-24.17,4.84q-14.16,0-23.35-4.84a41.72,41.72,0,0,1-15.09-13.32v16H901.39V42H931.1v62.73a40.94,40.94,0,0,1,15.09-13.56q9.19-4.83,23.35-4.83a59.32,59.32,0,0,1,24.17,4.83,55.85,55.85,0,0,1,18.86,13.44A63.26,63.26,0,0,1,1025,124.87,70.29,70.29,0,0,1,1029.43,150.22Zm-93-6.37v13a34.69,34.69,0,0,0,3.65,11,30.75,30.75,0,0,0,7.08,8.84,32.24,32.24,0,0,0,10.14,5.89,36.16,36.16,0,0,0,12.61,2.13,33.36,33.36,0,0,0,24.76-10.38,32.43,32.43,0,0,0,6.84-10.85,35.79,35.79,0,0,0,2.36-13A38.48,38.48,0,0,0,1001.5,137a33,33,0,0,0-6.72-11.08,32.32,32.32,0,0,0-10.73-7.55,36.77,36.77,0,0,0-26.76-.58,34.12,34.12,0,0,0-10.14,6,30.21,30.21,0,0,0-7.08,9A36,36,0,0,0,936.42,143.85Z" style="fill:#0d0d0d"/><path d="M1072.32,158.39a36.37,36.37,0,0,0,10.73,19.89q8.85,8.49,23,8.49a32.37,32.37,0,0,0,16.39-4.13,26.38,26.38,0,0,0,10.49-10.26h33.25a53.37,53.37,0,0,1-21.1,30.19q-15.91,11.31-39.27,11.32a66.52,66.52,0,0,1-25.46-4.84,62.77,62.77,0,0,1-20.52-13.44,61,61,0,0,1-13.56-20.28,65,65,0,0,1-4.83-25.11,66.91,66.91,0,0,1,4.72-25.35,61.12,61.12,0,0,1,13.2-20.28,60.4,60.4,0,0,1,20.16-13.44,65.64,65.64,0,0,1,25.35-4.83A73,73,0,0,1,1129,90.21a62.26,62.26,0,0,1,19.57,10.84,54.71,54.71,0,0,1,13.56,16.86,59.37,59.37,0,0,1,6.37,21.93q.46,4.95.47,8.85c0,2.59-.08,5.38-.24,9.7Zm64.14-19.49a27.31,27.31,0,0,0-10-18.39q-8.61-7.08-21.34-7.08T1084,120.51a33,33,0,0,0-11,18.39Z" style="fill:#0d0d0d"/><path d="M180.58,179.58,53.25,234.26A16,16,0,0,1,31,219.59V95.08a16,16,0,0,1,9.66-14.66L168,25.74a16,16,0,0,1,22.26,14.67V164.92A16,16,0,0,1,180.58,179.58Z" style="fill:#0f2c61"/><path d="M251.53,188.84l-87.35,37.51a16,16,0,0,1-22.25-14.66V127.15a16,16,0,0,1,9.66-14.66L238.94,75A16,16,0,0,1,261.2,89.64v84.54A16,16,0,0,1,251.53,188.84Z" style="fill:#256ff2"/></svg>