<svg width="690" height="153" viewBox="0 0 690 153" fill="none" xmlns="http://www.w3.org/2000/svg">
<g clip-path="url(#clip0_41935_98)">
<path d="M613.793 0H76.2067C34.1933 0 0 34.1933 0 76.2067C0 118.22 34.1933 152.413 76.2067 152.413H613.778C655.807 152.413 689.985 118.22 689.985 76.2067C689.985 34.1933 655.807 0 613.793 0Z" fill="#023C40"/>
<path d="M493.641 128.539C492.445 128.539 491.219 128.386 490.007 128.049C484.104 126.439 480.179 120.857 480.179 114.739V42.2587C478.185 42.78 475.993 42.55 474.061 41.4153C470.059 39.054 469.139 33.7027 471.623 29.7773C474.735 24.886 480.485 22.6013 486.235 24.0887C491.985 25.576 496.202 31.2953 496.202 37.4593V98.3633C496.202 99.958 498.333 100.495 499.085 99.084L535.716 30.5133C538.66 25.0087 544.686 22.3407 550.727 23.8587C556.355 25.2693 560.249 29.8693 560.771 35.512C561.169 39.8513 558.486 43.9913 554.177 44.6967C551.555 45.126 549.102 44.2827 547.369 42.6727L505.295 121.44C502.903 125.917 498.456 128.524 493.641 128.524V128.539Z" fill="#0CE865"/>
<path d="M409.737 128.969C380.788 128.969 357.221 105.417 357.221 76.452C357.221 47.4873 380.773 23.9353 409.737 23.9353C438.702 23.9353 462.254 47.4873 462.254 76.452C462.254 105.417 438.702 128.969 409.737 128.969ZM409.737 39.9586C389.62 39.9586 373.244 56.3346 373.244 76.452C373.244 96.5693 389.62 112.945 409.737 112.945C429.855 112.945 446.231 96.5693 446.231 76.452C446.231 56.3346 429.855 39.9586 409.737 39.9586Z" fill="#0CE865"/>
<path d="M613.778 128.969C585.059 128.969 561.645 105.785 561.277 77.1573C560.909 48.53 583.771 24.84 612.137 23.9813C641.823 23.0767 666.264 46.9507 666.295 76.4213C666.295 80.8527 662.707 84.4713 658.291 84.4713H605.897C601.711 84.4713 597.985 81.42 597.586 77.2493C597.126 72.4653 600.883 68.448 605.559 68.448H647.419C648.447 68.448 649.167 67.4513 648.891 66.47C644.169 49.8947 627.977 38.1033 609.5 40.2193C592.158 42.2127 578.481 56.6873 577.377 74.106C576.043 95.2967 592.894 112.945 613.793 112.945C622.549 112.945 630.997 109.802 637.621 104.098C640.688 101.445 645.411 101.415 648.385 104.175C651.943 107.471 651.774 113.022 648.217 116.119C638.679 124.415 626.443 128.969 613.793 128.969H613.778Z" fill="#0CE865"/>
<path d="M345.353 111.811C343.451 110.523 341.182 110.17 339.112 110.63V37.7353C339.112 31.5253 335.064 25.8367 329.038 24.3187C322.981 22.7853 316.925 25.4687 313.981 30.9733L277.349 99.544C276.598 100.955 274.467 100.418 274.467 98.8233V37.9347C274.467 31.7093 270.388 26.0053 264.347 24.5027C258.275 22.9847 252.233 25.6833 249.305 31.2187L210.511 104.635L206.985 111.274L204.853 110.63C202.783 110.155 200.514 110.523 198.613 111.811C194.611 114.509 194.151 120.198 197.202 123.939C200.253 127.681 204.593 129.275 209.101 128.723C209.116 128.723 209.131 128.723 209.162 128.723C209.239 128.723 209.3 128.708 209.377 128.693C213.67 128.233 217.503 125.703 219.65 121.639L255.561 53.682C256.312 52.2713 258.443 52.7927 258.443 54.4027V115.169C258.443 121.287 262.369 126.868 268.272 128.478C269.499 128.815 270.71 128.969 271.906 128.969C276.736 128.969 281.183 126.362 283.559 121.885L320.191 53.314C320.942 51.9033 323.073 52.44 323.073 54.0347V114.939C323.073 120.765 326.585 126.209 332.105 128.095C337.333 129.873 342.93 128.309 346.457 124.277C349.753 120.505 349.493 114.601 345.337 111.795L345.353 111.811Z" fill="#0CE865"/>
<path d="M75.8693 128.984C46.9047 128.984 23.3373 105.417 23.3373 76.452C23.3373 47.4873 46.9047 23.92 75.8693 23.92H134.581C163.545 23.92 187.113 47.4873 187.113 76.452C187.113 105.417 163.545 128.984 134.581 128.984H75.8693Z" fill="white"/>
<path d="M87.3233 60.8733C85.5907 61.1953 84.0727 62.836 83.9347 64.538C83.7967 66.2247 85.1 67.3287 86.848 66.9913C88.5807 66.6693 90.0987 65.0287 90.2367 63.342C90.3747 61.6553 89.056 60.5513 87.3233 60.8887" fill="#FF0000"/>
<path d="M99.6053 68.3867C98.8847 68.5247 98.0567 68.678 94.8213 72.4807C95.6187 71.0087 95.8793 69.7973 94.898 69.138C93.8707 68.448 92.1073 68.9847 91.126 69.6287C90.5127 70.0273 90.4973 70.2267 90.4053 70.9933C90.3133 71.4993 89.8687 72.6187 89.5467 73.2473L88.5653 75.3633C84.8547 81.8953 82.7693 83.6893 82.156 84.4407C81.5273 85.1307 81.006 85.5293 80.6533 85.606C80.3773 85.6673 80.2547 85.4526 80.3007 85.1153C80.3313 84.5787 80.5307 83.8427 80.96 82.8767C81.6653 81.2513 82.7847 78.844 83.674 77.234C84.1493 76.268 85.3913 73.9986 85.3913 73.9986C86.5567 71.3613 84.3487 70.4567 83.0453 70.6407C82.662 70.702 78.5833 71.1773 73.9067 71.9747C76.452 61.2107 76.2527 62.8207 78.89 55.9207C80.1933 52.5627 80.0553 51.7807 78.9513 50.508C77.8627 49.2353 78.0467 47.84 76.82 47.7173C73.9373 47.4567 63.94 61.9927 55.9053 76.13C52.118 77.28 48.3153 78.6447 44.8347 80.2393C42.504 81.2973 42.964 83.2447 43.1633 84.2413C43.4547 85.6367 44.9573 86.25 46.1533 85.5753C47.9627 84.548 50.048 83.5667 52.2713 82.662C52.21 82.8153 52.1793 82.892 52.21 82.8767C49.1587 88.6573 45.7393 96.738 44.62 100.326C43.9913 102.335 44.988 104.129 46.7053 104.911C48.4073 105.693 49.5727 104.865 50.14 102.166C50.8607 98.8233 55.1847 88.458 59.5547 80.086C59.5547 80.086 59.57 80.0553 59.616 79.994C62.2533 79.1507 64.9213 78.384 67.436 77.7093C65.9027 84.3027 65.504 87.032 65.5193 89.3013C65.5347 91.5247 66.3473 94.1313 68.77 93.7787C71.1773 93.426 70.794 91.126 71.0547 89.01C71.668 84.1493 71.7753 82.0333 72.91 76.4673C72.9407 76.4673 72.9713 76.406 73.002 76.314C75.6853 75.67 77.9853 75.1793 79.5953 74.8573C79.3653 75.348 79.1047 75.9 78.8287 76.4673C77.7707 78.6447 76.6207 81.328 75.8847 83.2447C75.21 85.1767 74.8113 86.6947 74.7193 87.998C74.5047 90.85 75.7007 92.3833 77.8167 91.9847C79.396 91.678 81.8187 89.5313 84.548 85.2227C84.2413 86.25 84.0573 87.0933 84.042 87.6147C83.95 89.838 85.054 91.6627 88.6113 89.24C88.964 88.9947 89.01 88.642 89.0253 87.9366C89.2093 85.5293 90.1753 82.3553 92.3067 79.0893C93.978 76.5747 95.1433 75.1487 96.6613 74.4893C99.36 73.3087 101.077 73.6767 102.595 71.8367C104.067 70.0427 101.001 68.1107 99.636 68.3713M68.5707 72.956C66.6847 73.3393 64.7067 73.784 62.652 74.29C66.1633 67.9573 70.0887 61.594 73.7227 56.6107C71.9133 61.088 70.0887 67.0987 68.5707 72.956Z" fill="#FF0000"/>
<path d="M173.865 75.5167C173.083 76.7893 172.393 77.8627 171.396 78.9513C170.491 79.948 169.786 80.3313 169.387 80.1933C168.36 79.8253 168.958 78.338 170.001 76.1607C170.491 75.1487 171.197 73.8147 171.825 72.68C172.73 71.208 172.914 70.7787 172.975 70.2573C173.067 69.506 172.592 69 171.197 68.4173C170.307 68.0187 170.231 67.942 169.863 66.8993C169.357 65.6267 168.283 64.9827 166.949 65.1667C164.941 65.4427 161.797 67.9113 159.022 71.3767C157.995 72.542 154.529 77.234 154.115 77.832L153.579 78.5527C152.076 80.638 151.647 81.144 150.972 81.88C150.313 82.5393 149.761 82.9227 149.408 82.9687C149.132 82.9993 149.025 82.8153 149.071 82.4473C149.147 81.9107 149.362 81.1747 149.837 80.2547C150.619 78.66 151.861 76.314 152.812 74.75C153.333 73.7993 154.238 72.0973 154.315 71.9133L154.836 71.024C155.051 70.6407 155.173 70.3033 155.219 69.9813C155.526 68.3253 153.901 67.528 152.613 67.6353C152.03 67.6813 151.033 68.1107 150.543 68.494C150.159 68.7547 150.098 68.862 149.975 69.3987C149.853 70.0733 148.948 72.036 148.013 73.784C146.847 75.9 145.575 78.522 144.762 80.408C143.98 82.3093 143.535 83.812 143.367 85.0847C142.999 87.9367 144.133 89.516 146.265 89.2247C147.859 88.9947 149.561 87.446 151.662 85.0387C152.337 84.272 153.073 83.1987 153.793 82.0947C153.41 85.2533 154.959 87.446 157.642 87.0627C159.421 86.802 160.923 85.4987 162.855 83.352C163.116 83.0913 163.208 82.984 163.346 82.9687C163.484 82.9533 163.607 83.0607 163.607 83.3213L163.699 83.6127C163.959 85.054 165.033 85.7287 166.597 85.514C168.498 85.2533 170.599 83.812 172.899 80.8833C174.754 78.5833 175.505 76.8813 175.889 75.8387C176.333 74.6427 174.662 74.198 173.88 75.5013M162.963 79.396C161.613 81.2053 160.356 82.3247 159.62 82.432C159.16 82.5087 158.899 82.064 158.991 81.3893C159.191 79.7487 161.828 74.796 163.791 72.3427C165.125 70.6407 166.52 69.4293 167.164 69.3527C167.67 69.276 167.854 69.552 167.777 70.2267C167.593 71.6833 164.772 77.05 162.963 79.396Z" fill="#FF0000"/>
<path d="M155.603 64.5993C157.335 64.262 158.869 62.6367 158.991 60.95C159.129 59.2633 157.826 58.1593 156.078 58.4813C154.345 58.8187 152.827 60.444 152.689 62.1307C152.551 63.8173 153.855 64.9213 155.603 64.5993Z" fill="#FF0000"/>
<path d="M130.088 71.8673C129.843 71.9133 129.597 71.944 129.352 71.99C131.913 61.2107 131.683 62.8207 134.351 55.9207C135.639 52.5627 135.501 51.7807 134.412 50.508C133.323 49.2353 133.507 47.8247 132.265 47.7173C129.383 47.4567 119.431 61.9313 111.397 76.038C107.625 77.188 103.822 78.568 100.357 80.224C98.1793 81.2513 98.624 83.214 98.8387 84.2106C99.1147 85.606 100.556 86.25 101.675 85.5753C103.469 84.502 105.539 83.5053 107.778 82.57C107.671 82.7846 101.66 94.7907 100.081 100.326C99.498 102.35 100.449 104.129 102.166 104.911C103.868 105.693 105.033 104.865 105.616 102.181C106.337 98.8386 112.041 85.4373 115.169 79.8713C117.806 79.0126 120.459 78.2613 122.912 77.602C122.912 77.648 120.995 85.376 120.98 89.3166C120.98 91.54 121.808 94.1466 124.231 93.794C126.653 93.4413 126.255 91.1413 126.531 89.0253C127.144 84.1646 127.236 82.0487 128.386 76.4827C128.417 76.4827 128.463 76.3753 128.524 76.222C129.168 76.0686 129.766 75.9306 130.318 75.808C133.354 75.1333 134.213 75.164 134.427 72.772C134.55 71.3 131.177 71.714 130.134 71.8673M129.168 56.6106C127.359 61.0726 125.549 67.068 124.031 72.9253C122.191 73.2933 120.198 73.7073 118.143 74.2133C121.655 67.896 125.549 61.5786 129.168 56.6106Z" fill="#FF0000"/>
<path d="M133.921 91.4327C132.357 91.6167 128.953 90.8346 128.371 88.0746C128.171 87.1853 129.459 84.7933 129.72 84.364C130.18 83.6587 130.901 84.088 131.146 84.4407C131.683 85.238 134.565 87.8446 136.221 86.158C137.279 85.0846 135.623 83.674 134.933 82.5087C132.373 78.246 135.823 73.3086 136.927 72.22C139.303 69.874 140.959 69.6593 142.125 69.6287C145.483 69.5213 146.663 71.438 146.403 72.5727C146.111 73.8147 145.452 74.5506 145.007 75.0413C144.67 75.394 143.719 75.5013 143.428 75.0567C142.707 73.9987 142.293 72.588 140.223 73.4313C138.552 74.106 138.46 76.406 138.813 77.51C139.395 79.304 141.757 80.6533 141.741 83.2293C141.68 89.884 135.884 91.218 133.891 91.4173" fill="#FF0000"/>
<path d="M87.3233 60.8733C85.5907 61.1953 84.0727 62.836 83.9347 64.538C83.7967 66.2247 85.1 67.3287 86.848 66.9913C88.5807 66.6693 90.0987 65.0287 90.2367 63.342C90.3747 61.6553 89.056 60.5513 87.3233 60.8887" fill="#FF0000"/>
<path d="M99.6053 68.3867C98.8847 68.5247 98.0567 68.678 94.8213 72.4807C95.6187 71.0087 95.8793 69.7973 94.898 69.138C93.8707 68.448 92.1073 68.9847 91.126 69.6287C90.5127 70.0273 90.4973 70.2267 90.4053 70.9933C90.3133 71.4993 89.8687 72.6187 89.5467 73.2473L88.5653 75.3633C84.8547 81.8953 82.7693 83.6893 82.156 84.4407C81.5273 85.1307 81.006 85.5293 80.6533 85.606C80.3773 85.6673 80.2547 85.4526 80.3007 85.1153C80.3313 84.5787 80.5307 83.8427 80.96 82.8767C81.6653 81.2513 82.7847 78.844 83.674 77.234C84.1493 76.268 85.3913 73.9986 85.3913 73.9986C86.5567 71.3613 84.3487 70.4567 83.0453 70.6407C82.662 70.702 78.5833 71.1773 73.9067 71.9747C76.452 61.2107 76.2527 62.8207 78.89 55.9207C80.1933 52.5627 80.0553 51.7807 78.9513 50.508C77.8627 49.2353 78.0467 47.84 76.82 47.7173C73.9373 47.4567 63.94 61.9927 55.9053 76.13C52.118 77.28 48.3153 78.6447 44.8347 80.2393C42.504 81.2973 42.964 83.2447 43.1633 84.2413C43.4547 85.6367 44.9573 86.25 46.1533 85.5753C47.9627 84.548 50.048 83.5667 52.2713 82.662C52.21 82.8153 52.1793 82.892 52.21 82.8767C49.1587 88.6573 45.7393 96.738 44.62 100.326C43.9913 102.335 44.988 104.129 46.7053 104.911C48.4073 105.693 49.5727 104.865 50.14 102.166C50.8607 98.8233 55.1847 88.458 59.5547 80.086C59.5547 80.086 59.57 80.0553 59.616 79.994C62.2533 79.1507 64.9213 78.384 67.436 77.7093C65.9027 84.3027 65.504 87.032 65.5193 89.3013C65.5347 91.5247 66.3473 94.1313 68.77 93.7787C71.1773 93.426 70.794 91.126 71.0547 89.01C71.668 84.1493 71.7753 82.0333 72.91 76.4673C72.9407 76.4673 72.9713 76.406 73.002 76.314C75.6853 75.67 77.9853 75.1793 79.5953 74.8573C79.3653 75.348 79.1047 75.9 78.8287 76.4673C77.7707 78.6447 76.6207 81.328 75.8847 83.2447C75.21 85.1767 74.8113 86.6947 74.7193 87.998C74.5047 90.85 75.7007 92.3833 77.8167 91.9847C79.396 91.678 81.8187 89.5313 84.548 85.2227C84.2413 86.25 84.0573 87.0933 84.042 87.6147C83.95 89.838 85.054 91.6627 88.6113 89.24C88.964 88.9947 89.01 88.642 89.0253 87.9366C89.2093 85.5293 90.1753 82.3553 92.3067 79.0893C93.978 76.5747 95.1433 75.1487 96.6613 74.4893C99.36 73.3087 101.077 73.6767 102.595 71.8367C104.067 70.0427 101.001 68.1107 99.636 68.3713M68.5707 72.956C66.6847 73.3393 64.7067 73.784 62.652 74.29C66.1633 67.9573 70.0887 61.594 73.7227 56.6107C71.9133 61.088 70.0887 67.0987 68.5707 72.956Z" fill="#FF0000"/>
<path d="M173.865 75.5167C173.083 76.7893 172.393 77.8627 171.396 78.9513C170.491 79.948 169.786 80.3313 169.387 80.1933C168.36 79.8253 168.958 78.338 170.001 76.1607C170.491 75.1487 171.197 73.8147 171.825 72.68C172.73 71.208 172.914 70.7787 172.975 70.2573C173.067 69.506 172.592 69 171.197 68.4173C170.307 68.0187 170.231 67.942 169.863 66.8993C169.357 65.6267 168.283 64.9827 166.949 65.1667C164.941 65.4427 161.797 67.9113 159.022 71.3767C157.995 72.542 154.529 77.234 154.115 77.832L153.579 78.5527C152.076 80.638 151.647 81.144 150.972 81.88C150.313 82.5393 149.761 82.9227 149.408 82.9687C149.132 82.9993 149.025 82.8153 149.071 82.4473C149.147 81.9107 149.362 81.1747 149.837 80.2547C150.619 78.66 151.861 76.314 152.812 74.75C153.333 73.7993 154.238 72.0973 154.315 71.9133L154.836 71.024C155.051 70.6407 155.173 70.3033 155.219 69.9813C155.526 68.3253 153.901 67.528 152.613 67.6353C152.03 67.6813 151.033 68.1107 150.543 68.494C150.159 68.7547 150.098 68.862 149.975 69.3987C149.853 70.0733 148.948 72.036 148.013 73.784C146.847 75.9 145.575 78.522 144.762 80.408C143.98 82.3093 143.535 83.812 143.367 85.0847C142.999 87.9367 144.133 89.516 146.265 89.2247C147.859 88.9947 149.561 87.446 151.662 85.0387C152.337 84.272 153.073 83.1987 153.793 82.0947C153.41 85.2533 154.959 87.446 157.642 87.0627C159.421 86.802 160.923 85.4987 162.855 83.352C163.116 83.0913 163.208 82.984 163.346 82.9687C163.484 82.9533 163.607 83.0607 163.607 83.3213L163.699 83.6127C163.959 85.054 165.033 85.7287 166.597 85.514C168.498 85.2533 170.599 83.812 172.899 80.8833C174.754 78.5833 175.505 76.8813 175.889 75.8387C176.333 74.6427 174.662 74.198 173.88 75.5013M162.963 79.396C161.613 81.2053 160.356 82.3247 159.62 82.432C159.16 82.5087 158.899 82.064 158.991 81.3893C159.191 79.7487 161.828 74.796 163.791 72.3427C165.125 70.6407 166.52 69.4293 167.164 69.3527C167.67 69.276 167.854 69.552 167.777 70.2267C167.593 71.6833 164.772 77.05 162.963 79.396Z" fill="#FF0000"/>
<path d="M155.603 64.5993C157.335 64.262 158.869 62.6367 158.991 60.95C159.129 59.2633 157.826 58.1593 156.078 58.4813C154.345 58.8187 152.827 60.444 152.689 62.1307C152.551 63.8173 153.855 64.9213 155.603 64.5993Z" fill="#FF0000"/>
<path d="M130.088 71.8673C129.843 71.9133 129.597 71.944 129.352 71.99C131.913 61.2107 131.683 62.8207 134.351 55.9207C135.639 52.5627 135.501 51.7807 134.412 50.508C133.323 49.2353 133.507 47.8247 132.265 47.7173C129.383 47.4567 119.431 61.9313 111.397 76.038C107.625 77.188 103.822 78.568 100.357 80.224C98.1793 81.2513 98.624 83.214 98.8387 84.2106C99.1147 85.606 100.556 86.25 101.675 85.5753C103.469 84.502 105.539 83.5053 107.778 82.57C107.671 82.7846 101.66 94.7907 100.081 100.326C99.498 102.35 100.449 104.129 102.166 104.911C103.868 105.693 105.033 104.865 105.616 102.181C106.337 98.8386 112.041 85.4373 115.169 79.8713C117.806 79.0126 120.459 78.2613 122.912 77.602C122.912 77.648 120.995 85.376 120.98 89.3166C120.98 91.54 121.808 94.1466 124.231 93.794C126.653 93.4413 126.255 91.1413 126.531 89.0253C127.144 84.1646 127.236 82.0487 128.386 76.4827C128.417 76.4827 128.463 76.3753 128.524 76.222C129.168 76.0686 129.766 75.9306 130.318 75.808C133.354 75.1333 134.213 75.164 134.427 72.772C134.55 71.3 131.177 71.714 130.134 71.8673M129.168 56.6106C127.359 61.0726 125.549 67.068 124.031 72.9253C122.191 73.2933 120.198 73.7073 118.143 74.2133C121.655 67.896 125.549 61.5786 129.168 56.6106Z" fill="#FF0000"/>
<path d="M133.921 91.4327C132.357 91.6167 128.953 90.8346 128.371 88.0746C128.171 87.1853 129.459 84.7933 129.72 84.364C130.18 83.6587 130.901 84.088 131.146 84.4407C131.683 85.238 134.565 87.8446 136.221 86.158C137.279 85.0846 135.623 83.674 134.933 82.5087C132.373 78.246 135.823 73.3086 136.927 72.22C139.303 69.874 140.959 69.6593 142.125 69.6287C145.483 69.5213 146.663 71.438 146.403 72.5727C146.111 73.8147 145.452 74.5506 145.007 75.0413C144.67 75.394 143.719 75.5013 143.428 75.0567C142.707 73.9987 142.293 72.588 140.223 73.4313C138.552 74.106 138.46 76.406 138.813 77.51C139.395 79.304 141.757 80.6533 141.741 83.2293C141.68 89.884 135.884 91.218 133.891 91.4173" fill="#FF0000"/>
</g>
<defs>
<clipPath id="clip0_41935_98">
<rect width="690" height="152.43" fill="white"/>
</clipPath>
</defs>
</svg>
