<?xml version="1.0" standalone="no"?>
<!DOCTYPE svg PUBLIC "-//W3C//DTD SVG 1.1//EN" "http://www.w3.org/Graphics/SVG/1.1/DTD/svg11.dtd">
<svg version="1.1" xmlns="http://www.w3.org/2000/svg" viewBox="0 0 1820 680" width="3640" height="1360" filter="invert(93%) hue-rotate(180deg)"><!-- svg-source:excalidraw --><metadata></metadata><defs><style class="style-fonts">
      @font-face { font-family: Comic Shanns; src: url(https://esm.sh/@excalidraw/excalidraw/dist/prod/fonts/ComicShanns/ComicShanns-Regular-279a7b317d12eb88de06167bd672b4b4.woff2); }</style></defs><rect x="0" y="0" width="1820" height="680" fill="#ffffff"></rect><g stroke-linecap="round" transform="translate(10 10) rotate(0 100 30)"><path d="M15 0 C70.04 -1.14, 121.85 0.86, 185 0 M15 0 C60.44 0.17, 106.17 -0.59, 185 0 M185 0 C193.36 -0.25, 198.06 4.92, 200 15 M185 0 C193.11 1.55, 199.44 5.79, 200 15 M200 15 C199.59 21.2, 198.53 29.86, 200 45 M200 15 C199.71 22.1, 199.63 29.4, 200 45 M200 45 C198.04 53.18, 196.62 60.3, 185 60 M200 45 C198.55 54.78, 196.94 59.44, 185 60 M185 60 C150.01 59.44, 116.44 60.06, 15 60 M185 60 C147.74 60.4, 108.71 60.87, 15 60 M15 60 C5.91 60.76, -1.91 56.07, 0 45 M15 60 C3.35 60.14, -0.49 54.96, 0 45 M0 45 C-0.06 37.19, 0.03 26.98, 0 15 M0 45 C-0.69 34.9, -0.07 24.37, 0 15 M0 15 C0.68 3.53, 3.6 0.51, 15 0 M0 15 C0.08 5.17, 5.13 -0.1, 15 0" stroke="#1971c2" stroke-width="2" fill="none"></path></g><g transform="translate(49.5 27.5) rotate(0 60.5 12.5)"><text x="60.5" y="17.5" font-family="Comic Shanns, Segoe UI Emoji" font-size="20px" fill="#1971c2" text-anchor="middle" style="white-space: pre;" direction="ltr" dominant-baseline="alphabetic">b2:download</text></g><g stroke-linecap="round" transform="translate(310 10) rotate(0 100 30)"><path d="M15 0 C50.56 -0.07, 86.12 1.33, 185 0 M15 0 C76.43 0.21, 137.63 -0.3, 185 0 M185 0 C195.11 1.63, 201.42 4.1, 200 15 M185 0 C193.63 -0.88, 201.3 3.69, 200 15 M200 15 C201.78 23.51, 199.76 33.93, 200 45 M200 15 C201.09 21.69, 199.93 28.01, 200 45 M200 45 C200.02 54.99, 196.81 61.45, 185 60 M200 45 C197.95 56.75, 194.4 60.52, 185 60 M185 60 C142.11 60.48, 102.72 60.59, 15 60 M185 60 C139.58 61.01, 93.71 59.96, 15 60 M15 60 C5.12 61.6, -0.23 54.59, 0 45 M15 60 C6.76 57.84, -2.13 56.98, 0 45 M0 45 C-1.66 32.8, -0.2 22.78, 0 15 M0 45 C-0.57 37.69, 0.48 29.41, 0 15 M0 15 C-1.84 6.29, 6.53 -1.82, 15 0 M0 15 C-0.2 6.29, 6.69 -0.21, 15 0" stroke="#1971c2" stroke-width="2" fill="none"></path></g><g transform="translate(393.5 27.5) rotate(0 16.5 12.5)"><text x="16.5" y="17.5" font-family="Comic Shanns, Segoe UI Emoji" font-size="20px" fill="#1971c2" text-anchor="middle" style="white-space: pre;" direction="ltr" dominant-baseline="alphabetic">...</text></g><g stroke-linecap="round" transform="translate(190 210) rotate(0 90 30)"><path d="M15 0 C66.31 -1.34, 116.89 0.72, 165 0 M15 0 C66.93 -0.51, 117.7 -2.12, 165 0 M165 0 C174 1.79, 179.83 5.45, 180 15 M165 0 C173.77 -2.12, 180.02 6.57, 180 15 M180 15 C178.49 25.08, 179.84 34.5, 180 45 M180 15 C180.62 26.6, 179.79 39.66, 180 45 M180 45 C179.95 54.43, 175.5 59.04, 165 60 M180 45 C180.84 53.95, 176.04 59.62, 165 60 M165 60 C134.58 59.71, 103.63 59.53, 15 60 M165 60 C126.02 59.19, 88.96 60.48, 15 60 M15 60 C4.35 61.25, -1.85 55.46, 0 45 M15 60 C5.45 61.4, -0.28 53.15, 0 45 M0 45 C-0.23 33.41, 1.82 24.85, 0 15 M0 45 C-0.36 34.86, -1.13 24.77, 0 15 M0 15 C-1.48 3.41, 5.04 -1.38, 15 0 M0 15 C0.85 6.81, 5.68 -2.25, 15 0" stroke="#1971c2" stroke-width="2" fill="none"></path></g><g transform="translate(203 227.5) rotate(0 77 12.5)"><text x="77" y="17.5" font-family="Comic Shanns, Segoe UI Emoji" font-size="20px" fill="#1971c2" text-anchor="middle" style="white-space: pre;" direction="ltr" dominant-baseline="alphabetic">setup-external</text></g><g stroke-linecap="round"><g transform="translate(90 70) rotate(0 90 70)"><path d="M0 0 C-1.02 11.81, -0.7 22.45, 0 54 M0 0 C0.17 14.68, -0.44 28.35, 0 54 M0 54 C0.39 65.88, 5.09 68.39, 16 70 M0 54 C1.51 62.4, 6.91 69.4, 16 70 M16 70 C56.31 70.6, 96.07 68.54, 164 70 M16 70 C54.19 70.22, 93.89 70.32, 164 70 M164 70 C175.41 71.57, 180.59 73.37, 180 86 M164 70 C176.48 71.53, 179.48 76.99, 180 86 M180 86 C180.05 102.12, 181.32 120.4, 180 140 M180 86 C180.55 105.2, 178.83 122.72, 180 140" stroke="#1971c2" stroke-width="2" fill="none"></path></g><g transform="translate(90 70) rotate(0 90 70)"><path d="M170.83 116.74 C171.89 121.96, 174.2 125.92, 180 140 M170.83 116.74 C173.11 123.34, 174.89 129, 180 140" stroke="#1971c2" stroke-width="2" fill="none"></path></g><g transform="translate(90 70) rotate(0 90 70)"><path d="M187.93 116.29 C185.27 121.45, 183.87 125.51, 180 140 M187.93 116.29 C185.76 123.16, 183.09 128.93, 180 140" stroke="#1971c2" stroke-width="2" fill="none"></path></g></g><mask></mask><g stroke-linecap="round"><g transform="translate(409.9000000000001 75) rotate(0 -69.95000000000005 67.5)"><path d="M0 0 C0.85 15.7, 0.96 32.43, 0 49 M0 0 C-0.57 13.44, 0.3 25.82, 0 49 M0 49 C-0.86 59.48, -3.76 65.83, -16 65 M0 49 C-2.16 57.71, -6.28 65.21, -16 65 M-16 65 C-49.54 64.86, -77.67 65.05, -123.9 65 M-16 65 C-53.76 66.11, -92.59 65.87, -123.9 65 M-123.9 65 C-134.82 65.77, -139.82 68.89, -139.9 81 M-123.9 65 C-132.66 65.61, -139.56 71.97, -139.9 81 M-139.9 81 C-139.18 93.56, -138.66 110.21, -139.9 135 M-139.9 81 C-139.03 98.83, -140.65 118.12, -139.9 135" stroke="#1971c2" stroke-width="2" fill="none"></path></g><g transform="translate(409.9000000000001 75) rotate(0 -69.95000000000005 67.5)"><path d="M-148.7 111.6 C-144.7 118.79, -141.69 127.08, -139.9 135 M-148.7 111.6 C-146.81 118.41, -143.66 124.17, -139.9 135" stroke="#1971c2" stroke-width="2" fill="none"></path></g><g transform="translate(409.9000000000001 75) rotate(0 -69.95000000000005 67.5)"><path d="M-131.6 111.42 C-133.23 118.81, -135.86 127.16, -139.9 135 M-131.6 111.42 C-134.13 118.3, -135.41 124.11, -139.9 135" stroke="#1971c2" stroke-width="2" fill="none"></path></g></g><mask></mask><g stroke-linecap="round" transform="translate(610 10) rotate(0 100 30)"><path d="M15 0 C48.35 -1.27, 85.84 1.58, 185 0 M15 0 C67.69 -1.21, 119.5 -0.94, 185 0 M185 0 C194.26 -0.54, 198.4 5.55, 200 15 M185 0 C193.13 -0.16, 197.9 3.34, 200 15 M200 15 C201.69 22.83, 198.49 29.76, 200 45 M200 15 C199.51 23.51, 199.43 31.05, 200 45 M200 45 C198.1 54.75, 194.52 59.82, 185 60 M200 45 C201.17 55.95, 194.98 58.12, 185 60 M185 60 C136.24 59.59, 86.15 59.45, 15 60 M185 60 C147.34 59.31, 111.2 60.25, 15 60 M15 60 C6.36 60.01, 1.34 54.18, 0 45 M15 60 C5.68 61.14, 0.06 55.38, 0 45 M0 45 C-0.14 37.96, -1.5 33.83, 0 15 M0 45 C0.4 37.61, -0.26 29.55, 0 15 M0 15 C-0.25 6.58, 5.04 0.8, 15 0 M0 15 C-0.95 6.11, 3.5 1.31, 15 0" stroke="#f08c00" stroke-width="2" fill="none"></path></g><g transform="translate(660.5 27.5) rotate(0 49.5 12.5)"><text x="49.5" y="17.5" font-family="Comic Shanns, Segoe UI Emoji" font-size="20px" fill="#f08c00" text-anchor="middle" style="white-space: pre;" direction="ltr" dominant-baseline="alphabetic">astro dev</text></g><g stroke-linecap="round" transform="translate(590 410) rotate(0 100 30)"><path d="M15 0 C54.86 -1.5, 94.44 -0.71, 185 0 M15 0 C81.58 0.56, 148.28 -0.09, 185 0 M185 0 C193.83 1.04, 200.99 5.23, 200 15 M185 0 C196.11 -0.96, 200.06 4.51, 200 15 M200 15 C199.65 26.6, 201.92 39.19, 200 45 M200 15 C199.24 22.66, 199.77 29.28, 200 45 M200 45 C198.01 55.75, 194.13 58.81, 185 60 M200 45 C199.91 56.95, 196.35 58.18, 185 60 M185 60 C123 63.06, 64.4 62.59, 15 60 M185 60 C130.31 60.41, 77.56 59.6, 15 60 M15 60 C6.29 60.86, 0.03 54.87, 0 45 M15 60 C5.69 61.59, 0.52 53.37, 0 45 M0 45 C-1.31 32.16, 1.65 19.78, 0 15 M0 45 C-0.63 35.09, 0.7 26.46, 0 15 M0 15 C-1.99 6.51, 3.6 -1.74, 15 0 M0 15 C-0.08 6.62, 6.37 1.35, 15 0" stroke="#1e1e1e" stroke-width="2" fill="none"></path></g><g transform="translate(673.5 427.5) rotate(0 16.5 12.5)"><text x="16.5" y="17.5" font-family="Comic Shanns, Segoe UI Emoji" font-size="20px" fill="#1e1e1e" text-anchor="middle" style="white-space: pre;" direction="ltr" dominant-baseline="alphabetic">dev</text></g><g stroke-linecap="round" transform="translate(990 410) rotate(0 100 30)"><path d="M15 0 C81.75 -0.4, 146.57 -0.05, 185 0 M15 0 C50.9 1.01, 85.2 1.64, 185 0 M185 0 C194.58 0.16, 200.03 3.76, 200 15 M185 0 C195.37 -1.51, 200.79 5.48, 200 15 M200 15 C200.22 23.94, 200.4 31.2, 200 45 M200 15 C200.42 21.44, 199.82 26.54, 200 45 M200 45 C199.52 54.11, 194.6 59.46, 185 60 M200 45 C201.91 56.3, 193.85 58.15, 185 60 M185 60 C143.32 61.43, 104.54 59.14, 15 60 M185 60 C134.15 58.99, 85.13 59.33, 15 60 M15 60 C5.22 59.3, 0.66 56.12, 0 45 M15 60 C2.81 60.41, -0.06 57.25, 0 45 M0 45 C-0.78 36.16, 0.21 28.5, 0 15 M0 45 C-0.29 33.66, -1.19 21.94, 0 15 M0 15 C1.72 4.44, 3.38 -0.34, 15 0 M0 15 C0.3 3.98, 2.75 -1.97, 15 0" stroke="#1e1e1e" stroke-width="2" fill="none"></path></g><g transform="translate(1062.5 427.5) rotate(0 27.5 12.5)"><text x="27.5" y="17.5" font-family="Comic Shanns, Segoe UI Emoji" font-size="20px" fill="#1e1e1e" text-anchor="middle" style="white-space: pre;" direction="ltr" dominant-baseline="alphabetic">build</text></g><g stroke-linecap="round" transform="translate(1390 410) rotate(0 100 30)"><path d="M15 0 C52.19 -0.91, 89.13 0.27, 185 0 M15 0 C63.89 0.28, 114.98 -0.68, 185 0 M185 0 C195.06 -0.54, 200.5 3.63, 200 15 M185 0 C196.01 0.17, 202.22 3.35, 200 15 M200 15 C202.09 21.25, 200.08 26.4, 200 45 M200 15 C200.02 26.54, 200.16 36.15, 200 45 M200 45 C200.44 56.67, 196.17 61.7, 185 60 M200 45 C200.67 55.59, 196.4 61.22, 185 60 M185 60 C151.88 57.23, 115.87 60.15, 15 60 M185 60 C146.93 61.22, 110.28 61.33, 15 60 M15 60 C6.25 60.07, 0.24 55.3, 0 45 M15 60 C5.88 61.98, 0.02 55.9, 0 45 M0 45 C0.87 38.76, 0.72 31.07, 0 15 M0 45 C1.16 36.62, 0.55 27.81, 0 15 M0 15 C1.94 6.06, 3.36 0.33, 15 0 M0 15 C1.02 6.74, 2.99 -0.31, 15 0" stroke="#1e1e1e" stroke-width="2" fill="none"></path></g><g transform="translate(1407.5 427.5) rotate(0 82.5 12.5)"><text x="82.5" y="17.5" font-family="Comic Shanns, Segoe UI Emoji" font-size="20px" fill="#1e1e1e" text-anchor="middle" style="white-space: pre;" direction="ltr" dominant-baseline="alphabetic">preview:nosetup</text></g><g stroke-linecap="round" transform="translate(1610 610) rotate(0 100 30)"><path d="M15 0 C61.34 0.83, 112.41 1.21, 185 0 M15 0 C59.16 1.6, 101.11 2.19, 185 0 M185 0 C196.57 0.99, 201.57 5.31, 200 15 M185 0 C196.43 -0.26, 201.64 7.27, 200 15 M200 15 C200.06 23.53, 199.93 29.29, 200 45 M200 15 C199.12 20.4, 200.2 28.53, 200 45 M200 45 C199.16 54.26, 195.82 61.43, 185 60 M200 45 C200.02 54.54, 195.54 58.04, 185 60 M185 60 C121.08 60.74, 57.09 58.52, 15 60 M185 60 C127.6 60.54, 71.14 59.92, 15 60 M15 60 C5.45 60.31, 0.25 53.49, 0 45 M15 60 C6.05 57.73, -2.1 52.95, 0 45 M0 45 C-1.1 37.67, -0.7 30.25, 0 15 M0 45 C0.54 36.5, 0.76 27.97, 0 15 M0 15 C0.87 3.49, 6.29 -1.81, 15 0 M0 15 C-0.32 4.64, 6.21 2.24, 15 0" stroke="#1e1e1e" stroke-width="2" fill="none"></path></g><g transform="translate(1671.5 627.5) rotate(0 38.5 12.5)"><text x="38.5" y="17.5" font-family="Comic Shanns, Segoe UI Emoji" font-size="20px" fill="#1e1e1e" text-anchor="middle" style="white-space: pre;" direction="ltr" dominant-baseline="alphabetic">preview</text></g><g stroke-linecap="round" transform="translate(790 210) rotate(0 100 30)"><path d="M15 0 C51.48 2.07, 90.25 0.65, 185 0 M15 0 C50.8 0.03, 87.34 -0.33, 185 0 M185 0 C193.06 1.41, 198.84 4.48, 200 15 M185 0 C195.68 -1.58, 198.38 4.63, 200 15 M200 15 C199.59 25.63, 201.03 37.35, 200 45 M200 15 C199.64 25.66, 199.26 35.61, 200 45 M200 45 C199.63 53.52, 194.11 58.72, 185 60 M200 45 C201.99 56.29, 194.46 60.67, 185 60 M185 60 C119.41 59.89, 53.29 62.48, 15 60 M185 60 C135.34 58.98, 85.54 59.49, 15 60 M15 60 C4 59.82, 0.26 54.92, 0 45 M15 60 C6.05 57.91, -1.25 55.45, 0 45 M0 45 C-0.93 36.41, -1.95 24.13, 0 15 M0 45 C-0.82 34.41, -0.56 21.89, 0 15 M0 15 C-1.36 6.71, 6.62 -1.08, 15 0 M0 15 C-1.46 3.54, 3.77 -1.48, 15 0" stroke="#1e1e1e" stroke-width="2" fill="none"></path></g><g transform="translate(829.5 227.5) rotate(0 60.5 12.5)"><text x="60.5" y="17.5" font-family="Comic Shanns, Segoe UI Emoji" font-size="20px" fill="#1e1e1e" text-anchor="middle" style="white-space: pre;" direction="ltr" dominant-baseline="alphabetic">dev:nosetup</text></g><g stroke-linecap="round" transform="translate(1010 10) rotate(0 100 30)"><path d="M15 0 C67.99 0.31, 121.41 -0.81, 185 0 M15 0 C57.29 0.68, 98.03 0.27, 185 0 M185 0 C194.66 0.38, 199.83 3.32, 200 15 M185 0 C196.68 -0.77, 198.04 7.22, 200 15 M200 15 C198.42 22.75, 201.01 33.06, 200 45 M200 15 C199.38 21.02, 200.46 28.87, 200 45 M200 45 C199.03 56.43, 193.66 59.08, 185 60 M200 45 C201.23 54.01, 195.02 58.76, 185 60 M185 60 C132.79 57.65, 81.51 58.72, 15 60 M185 60 C122.47 60.6, 60.8 61.06, 15 60 M15 60 C6.98 58.18, 1.53 54.04, 0 45 M15 60 C3.87 60.87, 1.56 55.34, 0 45 M0 45 C-0.84 35.07, -1.32 20.11, 0 15 M0 45 C0.79 35.33, 0.17 27.53, 0 15 M0 15 C0.45 4.92, 3.5 1.69, 15 0 M0 15 C-0.15 4.41, 6.98 -1.37, 15 0" stroke="#f08c00" stroke-width="2" fill="none"></path></g><g transform="translate(1049.5 27.5) rotate(0 60.5 12.5)"><text x="60.5" y="17.5" font-family="Comic Shanns, Segoe UI Emoji" font-size="20px" fill="#f08c00" text-anchor="middle" style="white-space: pre;" direction="ltr" dominant-baseline="alphabetic">astro build</text></g><g stroke-linecap="round" transform="translate(1410 10) rotate(0 100 30)"><path d="M15 0 C77.27 0.85, 140.86 -1.12, 185 0 M15 0 C51.54 -1.19, 90.08 0.03, 185 0 M185 0 C193.7 1.21, 198.78 5.17, 200 15 M185 0 C194.15 -1.06, 200.66 3.41, 200 15 M200 15 C199.04 23.55, 200.19 26.38, 200 45 M200 15 C200.29 21.9, 200.77 29.39, 200 45 M200 45 C201.57 54.49, 196.7 60, 185 60 M200 45 C201.58 53.19, 197.25 58.52, 185 60 M185 60 C143.48 58.53, 106.75 59.97, 15 60 M185 60 C118.78 59.8, 51.39 60.21, 15 60 M15 60 C4.98 60.25, -1.56 55.65, 0 45 M15 60 C2.77 58.3, -2.29 52.95, 0 45 M0 45 C-1.2 31.16, 1.16 20.18, 0 15 M0 45 C0.05 35.4, 0.5 24.82, 0 15 M0 15 C-0.66 3.38, 6.72 0.38, 15 0 M0 15 C-1.17 6.6, 6.1 -0.85, 15 0" stroke="#f08c00" stroke-width="2" fill="none"></path></g><g transform="translate(1438.5 27.5) rotate(0 71.5 12.5)"><text x="71.5" y="17.5" font-family="Comic Shanns, Segoe UI Emoji" font-size="20px" fill="#f08c00" text-anchor="middle" style="white-space: pre;" direction="ltr" dominant-baseline="alphabetic">astro preview</text></g><g stroke-linecap="round" transform="translate(1210 210) rotate(0 100 30)"><path d="M15 0 C71.25 -2.07, 127.76 -2.4, 185 0 M15 0 C76.09 -1.11, 137.68 -1.13, 185 0 M185 0 C193.97 -1.59, 200.06 4.22, 200 15 M185 0 C194.42 -1.27, 198.41 7.23, 200 15 M200 15 C200.24 26.13, 199.08 32.64, 200 45 M200 15 C200.3 25.22, 199.61 35.35, 200 45 M200 45 C200.76 54.86, 193.44 60.29, 185 60 M200 45 C201.44 52.89, 193.82 62.01, 185 60 M185 60 C119.33 60.24, 52.27 61.05, 15 60 M185 60 C137.87 59.4, 89.8 58.53, 15 60 M15 60 C6.8 58.62, -1.1 54.22, 0 45 M15 60 C6.02 58.77, -1.34 53.76, 0 45 M0 45 C-1.99 37.23, 0.01 28.7, 0 15 M0 45 C0.39 36.84, 0.5 26.32, 0 15 M0 15 C-1 5.32, 6.16 1.51, 15 0 M0 15 C-1.65 3.79, 5.53 -0.22, 15 0" stroke="#1e1e1e" stroke-width="2" fill="none"></path></g><g transform="translate(1238.5 227.5) rotate(0 71.5 12.5)"><text x="71.5" y="17.5" font-family="Comic Shanns, Segoe UI Emoji" font-size="20px" fill="#1e1e1e" text-anchor="middle" style="white-space: pre;" direction="ltr" dominant-baseline="alphabetic">build:nosetup</text></g><g stroke-linecap="round" transform="translate(1610 210) rotate(0 100 30)"><path d="M15 0 C51.59 -0.11, 89.26 -0.17, 185 0 M15 0 C50.17 1.27, 85.8 1.36, 185 0 M185 0 C194.47 0.96, 200.8 6.09, 200 15 M185 0 C196.22 -1.09, 198.56 6.88, 200 15 M200 15 C199.69 20.96, 200.3 29.23, 200 45 M200 15 C201.22 22.93, 200.3 32.07, 200 45 M200 45 C201.83 54.1, 195.15 60.22, 185 60 M200 45 C201.7 56.67, 194.95 58.55, 185 60 M185 60 C136.1 59.93, 91.73 60.64, 15 60 M185 60 C124.81 61.83, 64.19 60.63, 15 60 M15 60 C3.63 59.93, 0.16 55.36, 0 45 M15 60 C3.26 60.45, 0.62 52.72, 0 45 M0 45 C0.13 39.15, -1.55 30.26, 0 15 M0 45 C0.01 33.15, 0.59 22.73, 0 15 M0 15 C-1.77 5.51, 6.92 0.14, 15 0 M0 15 C-1.96 6.97, 5.21 -2.15, 15 0" stroke="#1e1e1e" stroke-width="2" fill="none"></path></g><g transform="translate(1627.5 227.5) rotate(0 82.5 12.5)"><text x="82.5" y="17.5" font-family="Comic Shanns, Segoe UI Emoji" font-size="20px" fill="#1e1e1e" text-anchor="middle" style="white-space: pre;" direction="ltr" dominant-baseline="alphabetic">preview:nobuild</text></g><g stroke-linecap="round"><g transform="translate(709.9000000000001 75) rotate(0 0.049999999999954525 167.5)"><path d="M0 0 C0.85 89.54, -1.36 178.22, 0.1 335 M0 0 C-2.67 121.32, -2.1 243.35, 0.1 335" stroke="#f08c00" stroke-width="2" fill="none"></path></g><g transform="translate(709.9000000000001 75) rotate(0 0.049999999999954525 167.5)"><path d="M-8.84 311.65 C-4.76 319.22, -5.7 325.61, 0.1 335 M-8.84 311.65 C-6.8 320.04, -2.77 329.52, 0.1 335" stroke="#f08c00" stroke-width="2" fill="none"></path></g><g transform="translate(709.9000000000001 75) rotate(0 0.049999999999954525 167.5)"><path d="M8.26 311.37 C7.82 319.18, 2.36 325.65, 0.1 335 M8.26 311.37 C4.1 319.91, 1.94 329.49, 0.1 335" stroke="#f08c00" stroke-width="2" fill="none"></path></g></g><mask></mask><g stroke-linecap="round"><g transform="translate(709.9000000000001 75) rotate(0 90 65)"><path d="M0 0 C0.89 15.05, 0.44 34.45, 0 49 M0 0 C-1.16 18.6, -0.66 37.53, 0 49 M0 49 C-0.67 57.84, 6.75 65.68, 16 65 M0 49 C-1.66 61.37, 6.06 64.92, 16 65 M16 65 C48.62 66.6, 83.86 65.45, 164 65 M16 65 C48.48 66.78, 79.47 66, 164 65 M164 65 C173.07 65.76, 178.02 71.49, 180 81 M164 65 C174.66 63.91, 178.12 72.41, 180 81 M180 81 C180.09 90.9, 181.6 105.9, 180 130 M180 81 C180.47 95.14, 180.32 110.71, 180 130" stroke="#f08c00" stroke-width="2" fill="none"></path></g><g transform="translate(709.9000000000001 75) rotate(0 90 65)"><path d="M171.78 106.39 C175.26 113.05, 177.53 124.04, 180 130 M171.78 106.39 C173.99 115.29, 177.63 124.5, 180 130" stroke="#f08c00" stroke-width="2" fill="none"></path></g><g transform="translate(709.9000000000001 75) rotate(0 90 65)"><path d="M188.88 106.63 C186.69 113.16, 183.3 124.08, 180 130 M188.88 106.63 C184.55 115.41, 181.65 124.53, 180 130" stroke="#f08c00" stroke-width="2" fill="none"></path></g></g><mask></mask><g stroke-linecap="round"><g transform="translate(1109.9 75) rotate(0 100 65)"><path d="M0 0 C-1.28 12.57, -1.87 28.36, 0 49 M0 0 C-0.58 11.94, 0.5 21.79, 0 49 M0 49 C0 61.09, 5.88 65.75, 16 65 M0 49 C1.31 58.88, 3.31 65.01, 16 65 M16 65 C56.98 65.47, 100.61 62.31, 184 65 M16 65 C50.81 65.69, 86.05 66.01, 184 65 M184 65 C193.23 66.53, 201.73 70.14, 200 81 M184 65 C195.55 64.27, 199.48 70.18, 200 81 M200 81 C198.02 95.06, 197.88 106.29, 200 130 M200 81 C200.49 93.81, 199.23 104.47, 200 130" stroke="#f08c00" stroke-width="2" fill="none"></path></g><g transform="translate(1109.9 75) rotate(0 100 65)"><path d="M191.15 106.62 C192.54 112, 194.45 120.55, 200 130 M191.15 106.62 C192.87 112.6, 196 116.51, 200 130" stroke="#f08c00" stroke-width="2" fill="none"></path></g><g transform="translate(1109.9 75) rotate(0 100 65)"><path d="M208.25 106.4 C204.81 111.75, 201.88 120.36, 200 130 M208.25 106.4 C206 112.46, 205.17 116.42, 200 130" stroke="#f08c00" stroke-width="2" fill="none"></path></g></g><mask></mask><g stroke-linecap="round"><g transform="translate(1509.9 75) rotate(0 100 65)"><path d="M0 0 C0.03 13.33, -1.35 23.84, 0 49 M0 0 C-0.46 18.51, 0.13 36.03, 0 49 M0 49 C0.57 60.58, 5.58 65.26, 16 65 M0 49 C1.89 59.45, 3.57 65.76, 16 65 M16 65 C59.59 66.36, 106.78 65.56, 184 65 M16 65 C71.27 64.48, 125.05 65.38, 184 65 M184 65 C195.07 63.99, 198.26 72.2, 200 81 M184 65 C192.63 62.95, 198.65 68.66, 200 81 M200 81 C198.57 94.87, 198.96 109.87, 200 130 M200 81 C200.51 98.39, 199.16 114.82, 200 130" stroke="#f08c00" stroke-width="2" fill="none"></path></g><g transform="translate(1509.9 75) rotate(0 100 65)"><path d="M190.99 106.68 C193.27 113.91, 194.01 118.41, 200 130 M190.99 106.68 C193.84 115.53, 197.82 123.38, 200 130" stroke="#f08c00" stroke-width="2" fill="none"></path></g><g transform="translate(1509.9 75) rotate(0 100 65)"><path d="M208.09 106.34 C206.36 113.81, 203.09 118.38, 200 130 M208.09 106.34 C204.49 115.3, 202.04 123.27, 200 130" stroke="#f08c00" stroke-width="2" fill="none"></path></g></g><mask></mask><g stroke-linecap="round"><g transform="translate(1109.9 75) rotate(0 0.049999999999954525 167.5)"><path d="M0 0 C2.19 93.3, 3.39 183.27, 0.1 335 M0 0 C-1.2 104.06, -0.61 206.79, 0.1 335" stroke="#f08c00" stroke-width="2" fill="none"></path></g><g transform="translate(1109.9 75) rotate(0 0.049999999999954525 167.5)"><path d="M-8.57 311.55 C-6 319.54, -1.86 322.63, 0.1 335 M-8.57 311.55 C-6.02 319.67, -2.52 325.76, 0.1 335" stroke="#f08c00" stroke-width="2" fill="none"></path></g><g transform="translate(1109.9 75) rotate(0 0.049999999999954525 167.5)"><path d="M8.53 311.46 C6.4 319.54, 5.82 322.66, 0.1 335 M8.53 311.46 C5.8 319.51, 4.01 325.62, 0.1 335" stroke="#f08c00" stroke-width="2" fill="none"></path></g></g><mask></mask><g stroke-linecap="round"><g transform="translate(1510.02 75) rotate(0 -0.009999999999990905 167.5)"><path d="M0 0 C-0.35 116.16, 0.73 231.98, -0.02 335 M0 0 C-0.1 131.67, -0.24 262.11, -0.02 335" stroke="#f08c00" stroke-width="2" fill="none"></path></g><g transform="translate(1510.02 75) rotate(0 -0.009999999999990905 167.5)"><path d="M-8.6 311.52 C-6.84 319.23, -2.23 326.52, -0.02 335 M-8.6 311.52 C-4.9 321.43, -1.75 329.54, -0.02 335" stroke="#f08c00" stroke-width="2" fill="none"></path></g><g transform="translate(1510.02 75) rotate(0 -0.009999999999990905 167.5)"><path d="M8.5 311.5 C4.32 319.37, 2.98 326.68, -0.02 335 M8.5 311.5 C5.51 321.44, 1.96 329.56, -0.02 335" stroke="#f08c00" stroke-width="2" fill="none"></path></g></g><mask></mask><g stroke-linecap="round"><g transform="translate(270 270) rotate(0 200 70)"><path d="M0 0 C-1.05 16.36, -0.86 33.53, 0 54 M0 0 C-0.37 15.79, -1.1 32.77, 0 54 M0 54 C-1.97 62.98, 4.85 70.37, 16 70 M0 54 C-0.13 63.79, 6.78 69.01, 16 70 M16 70 C99.7 70.49, 183.98 70.52, 384 70 M16 70 C114.58 70.78, 212.55 71.05, 384 70 M384 70 C395.34 70.11, 398.64 76.05, 400 86 M384 70 C394.51 70.73, 399.9 73.99, 400 86 M400 86 C400.48 105.28, 401.91 126.7, 400 140 M400 86 C400.42 97.57, 400.16 109.57, 400 140" stroke="#1971c2" stroke-width="2" fill="none"></path></g><g transform="translate(270 270) rotate(0 200 70)"><path d="M391.61 116.45 C393.42 123.18, 396.27 130.72, 400 140 M391.61 116.45 C393.95 122.82, 395.81 130.36, 400 140" stroke="#1971c2" stroke-width="2" fill="none"></path></g><g transform="translate(270 270) rotate(0 200 70)"><path d="M408.71 116.57 C405.12 123.27, 402.55 130.77, 400 140 M408.71 116.57 C405.74 122.84, 402.3 130.35, 400 140" stroke="#1971c2" stroke-width="2" fill="none"></path></g></g><mask></mask><g stroke-linecap="round"><g transform="translate(270 270) rotate(0 400 70)"><path d="M0 0 C1.19 19.59, 0.45 39.19, 0 54 M0 0 C-0.25 16.47, 1.16 33.56, 0 54 M0 54 C0.52 65.03, 4.06 71.15, 16 70 M0 54 C1.31 64.79, 7.21 71.12, 16 70 M16 70 C279.59 69.71, 543.68 69.54, 784 70 M16 70 C274.31 70.43, 533.51 70.43, 784 70 M784 70 C796.21 71.17, 801.65 74.33, 800 86 M784 70 C794.28 71.24, 801.41 73.27, 800 86 M800 86 C802.22 98.33, 799.07 109.26, 800 140 M800 86 C799.84 99.88, 799.61 112.29, 800 140" stroke="#1971c2" stroke-width="2" fill="none"></path></g><g transform="translate(270 270) rotate(0 400 70)"><path d="M791.22 116.59 C795.39 124.9, 797.88 133.26, 800 140 M791.22 116.59 C793.42 123.49, 797.57 131.04, 800 140" stroke="#1971c2" stroke-width="2" fill="none"></path></g><g transform="translate(270 270) rotate(0 400 70)"><path d="M808.32 116.43 C806.21 124.88, 802.41 133.3, 800 140 M808.32 116.43 C805.19 123.44, 804.01 131.05, 800 140" stroke="#1971c2" stroke-width="2" fill="none"></path></g></g><mask></mask><g stroke-linecap="round"><g transform="translate(1309.9 275) rotate(0 80.04999999999995 67.5)"><path d="M0 0 C-0.96 12.27, -0.81 26.28, 0 49 M0 0 C0.37 12.46, 0.72 27.13, 0 49 M0 49 C-1.37 61.59, 5.22 64.7, 16 65 M0 49 C-1.47 57.76, 5.03 64.07, 16 65 M16 65 C41.05 65.53, 68.9 63.73, 144.1 65 M16 65 C64.83 64.37, 114.74 64.32, 144.1 65 M144.1 65 C156.24 66.69, 160.8 71.2, 160.1 81 M144.1 65 C154.63 63.4, 161.98 70.78, 160.1 81 M160.1 81 C160.49 100.85, 158.99 123.55, 160.1 135 M160.1 81 C160.32 102.29, 159.75 124.42, 160.1 135" stroke="#1e1e1e" stroke-width="2" fill="none"></path></g><g transform="translate(1309.9 275) rotate(0 80.04999999999995 67.5)"><path d="M151.34 111.59 C152.44 117.28, 154.87 124.65, 160.1 135 M151.34 111.59 C153.99 117.21, 156.69 124.99, 160.1 135" stroke="#1e1e1e" stroke-width="2" fill="none"></path></g><g transform="translate(1309.9 275) rotate(0 80.04999999999995 67.5)"><path d="M168.44 111.43 C165.11 117.04, 163.09 124.45, 160.1 135 M168.44 111.43 C166.49 116.99, 164.59 124.81, 160.1 135" stroke="#1e1e1e" stroke-width="2" fill="none"></path></g></g><mask></mask><g stroke-linecap="round"><g transform="translate(1089.9 475) rotate(0 300.04999999999995 67.5)"><path d="M0 0 C0.17 13.16, 1.37 29.73, 0 49 M0 0 C-0.95 11.48, -0.69 22.74, 0 49 M0 49 C0.71 60.73, 4.53 64.94, 16 65 M0 49 C-0.7 61.76, 3.41 65.75, 16 65 M16 65 C160.28 64.53, 304.49 63.38, 584.1 65 M16 65 C230.58 63.22, 444.69 63.35, 584.1 65 M584.1 65 C594.61 65.99, 598.36 70.49, 600.1 81 M584.1 65 C596.46 62.87, 597.83 70.58, 600.1 81 M600.1 81 C598.79 101.7, 602.06 122.88, 600.1 135 M600.1 81 C599.94 94.15, 600.56 108.76, 600.1 135" stroke="#9c36b5" stroke-width="2" fill="none"></path></g><g transform="translate(1089.9 475) rotate(0 300.04999999999995 67.5)"><path d="M591.75 111.44 C594.27 116.99, 597.96 125.97, 600.1 135 M591.75 111.44 C592.72 117.19, 594.85 122.77, 600.1 135" stroke="#9c36b5" stroke-width="2" fill="none"></path></g><g transform="translate(1089.9 475) rotate(0 300.04999999999995 67.5)"><path d="M608.85 111.58 C606.27 117.13, 604.86 126.07, 600.1 135 M608.85 111.58 C606 117.39, 604.31 122.94, 600.1 135" stroke="#9c36b5" stroke-width="2" fill="none"></path></g></g><mask></mask><g stroke-linecap="round"><g transform="translate(1509.9 75) rotate(0 110.04999999999995 267.5)"><path d="M0 0 C1.98 85.69, 0.27 168.86, 0 249 M0 0 C-0.05 71.99, 0.49 142.83, 0 249 M0 249 C0.71 259.7, 4.65 266.9, 16 265 M0 249 C2.16 257.69, 6.83 263.78, 16 265 M16 265 C73.98 263.99, 131.17 265.51, 204.1 265 M16 265 C65.98 262.59, 116.61 262.38, 204.1 265 M204.1 265 C212.98 265.98, 221.45 269.04, 220.1 281 M204.1 265 C216.67 264.09, 219.45 272.24, 220.1 281 M220.1 281 C222.3 358.82, 219.52 435.41, 220.1 535 M220.1 281 C217.85 336.28, 218.36 389.82, 220.1 535" stroke="#f08c00" stroke-width="2" fill="none"></path></g><g transform="translate(1509.9 75) rotate(0 110.04999999999995 267.5)"><path d="M211.29 511.6 C215.56 520.83, 216.47 527.04, 220.1 535 M211.29 511.6 C213.55 518.88, 216.73 524.85, 220.1 535" stroke="#f08c00" stroke-width="2" fill="none"></path></g><g transform="translate(1509.9 75) rotate(0 110.04999999999995 267.5)"><path d="M228.39 511.42 C226.85 520.87, 221.95 527.15, 220.1 535 M228.39 511.42 C225.74 518.9, 224.01 524.92, 220.1 535" stroke="#f08c00" stroke-width="2" fill="none"></path></g></g><mask></mask></svg>